<svg id="Capa_1" enable-background="new 0 0 512 512" height="512" viewBox="0 0 512 512" width="512" xmlns="http://www.w3.org/2000/svg"><g><g fill="#2b4d66"><path d="m68.403 252.79c-4.267 0-7.726 3.459-7.726 7.726v53.845c0 4.267 3.459 7.726 7.726 7.726s7.726-3.459 7.726-7.726v-53.845c.001-4.266-3.458-7.726-7.726-7.726z"/><path d="m256 252.79c-4.267 0-7.726 3.459-7.726 7.726v53.845c0 4.267 3.459 7.726 7.726 7.726s7.726-3.459 7.726-7.726v-53.845c0-4.266-3.459-7.726-7.726-7.726z"/><path d="m443.567 252.79c-4.267 0-7.726 3.459-7.726 7.726v53.845c0 4.267 3.459 7.726 7.726 7.726s7.726-3.459 7.726-7.726v-53.845c0-4.266-3.459-7.726-7.726-7.726z"/><path d="m256 378.547c-4.267 0-7.726 3.459-7.726 7.726v53.845c0 4.267 3.459 7.726 7.726 7.726s7.726-3.459 7.726-7.726v-53.845c0-4.267-3.459-7.726-7.726-7.726z"/><path d="m190.378 342.591h-56.353c-4.267 0-7.726 3.459-7.726 7.726s3.459 7.726 7.726 7.726h56.353c4.267 0 7.726-3.459 7.726-7.726.001-4.267-3.459-7.726-7.726-7.726z"/><path d="m377.974 342.591h-56.353c-4.267 0-7.726 3.459-7.726 7.726s3.459 7.726 7.726 7.726h56.353c4.267 0 7.726-3.459 7.726-7.726.001-4.267-3.459-7.726-7.726-7.726z"/><path d="m443.567 127.063h-179.841v-38.472c0-4.267-3.459-7.726-7.726-7.726s-7.726 3.459-7.726 7.726v38.473h-179.871c-4.267 0-7.726 3.459-7.726 7.726v53.845c0 4.267 3.459 7.726 7.726 7.726s7.726-3.459 7.726-7.726v-46.119h172.144v46.119c0 4.267 3.459 7.726 7.726 7.726s7.726-3.459 7.726-7.726v-46.119h172.114v46.119c0 4.267 3.459 7.726 7.726 7.726s7.726-3.459 7.726-7.726v-53.845c.002-4.267-3.457-7.727-7.724-7.727z"/></g><g><path clip-rule="evenodd" d="m134.025 242.096v-35.011c0-10.155-8.295-18.45-18.42-18.45h-47.201-47.173c-10.125 0-18.42 8.295-18.42 18.45v35.011c0 10.125 8.295 18.421 18.42 18.421h47.172 47.202c10.125 0 18.42-8.296 18.42-18.421z" fill="#b1e4f9" fill-rule="evenodd"/></g><g><path clip-rule="evenodd" d="m190.378 207.085v35.011c0 10.125 8.295 18.421 18.45 18.421h47.172 47.172c10.155 0 18.45-8.295 18.45-18.421v-35.011c0-10.155-8.295-18.45-18.45-18.45h-47.172-47.172c-10.155 0-18.45 8.295-18.45 18.45z" fill="#b1e4f9" fill-rule="evenodd"/></g><g><path clip-rule="evenodd" d="m377.975 207.085v35.011c0 10.125 8.295 18.421 18.42 18.421h47.172 47.172c10.155 0 18.45-8.295 18.45-18.421v-35.011c0-10.155-8.295-18.45-18.45-18.45h-47.172-47.172c-10.125 0-18.42 8.295-18.42 18.45z" fill="#b1e4f9" fill-rule="evenodd"/></g><g><path clip-rule="evenodd" d="m134.025 367.823v-17.506-17.506c0-10.155-8.295-18.45-18.42-18.45h-47.201-47.173c-10.125 0-18.42 8.295-18.42 18.45v35.011c0 10.125 8.295 18.45 18.42 18.45h94.374c10.125.001 18.42-8.324 18.42-18.449z" fill="#a7e9a6" fill-rule="evenodd"/></g><g><path clip-rule="evenodd" d="m190.378 350.317v17.506c0 10.125 8.295 18.45 18.45 18.45h47.172 47.172c10.155 0 18.45-8.325 18.45-18.45v-17.506-17.506c0-10.155-8.295-18.45-18.45-18.45h-47.172-47.172c-10.155 0-18.45 8.295-18.45 18.45z" fill="#a7e9a6" fill-rule="evenodd"/></g><g><path clip-rule="evenodd" d="m377.975 350.317v17.506c0 10.125 8.295 18.45 18.42 18.45h94.344c10.155 0 18.45-8.325 18.45-18.45v-35.011c0-10.155-8.295-18.45-18.45-18.45h-47.172-47.172c-10.125 0-18.42 8.295-18.42 18.45z" fill="#a7e9a6" fill-rule="evenodd"/></g><g><path clip-rule="evenodd" d="m321.622 458.539c0-10.125-8.295-18.421-18.45-18.421h-47.172-47.172c-10.155 0-18.45 8.295-18.45 18.421v35.011c0 10.155 8.295 18.45 18.45 18.45h94.344c10.155 0 18.45-8.295 18.45-18.45z" fill="#ffd772" fill-rule="evenodd"/></g><g><path clip-rule="evenodd" d="m189.67 88.59h66.33 66.33c12.516 0 22.73-10.214 22.73-22.731v-43.128c0-12.517-10.213-22.731-22.73-22.731h-132.66c-12.516 0-22.73 10.214-22.73 22.731v43.129c0 12.516 10.213 22.73 22.73 22.73z" fill="#eb5468" fill-rule="evenodd"/></g><g><path clip-rule="evenodd" d="m134.025 207.085c0-10.155-8.295-18.45-18.42-18.45h-34.006c10.125 0 18.42 8.295 18.42 18.45v35.011c0 10.125-8.295 18.421-18.42 18.421h34.006c10.125 0 18.42-8.295 18.42-18.421z" fill="#75cef8" fill-rule="evenodd"/></g><g><path clip-rule="evenodd" d="m115.605 314.362h-33.918c10.096.059 18.332 8.354 18.332 18.45v17.506 17.506c0 10.125-8.295 18.45-18.42 18.45h34.006c10.125 0 18.42-8.325 18.42-18.45v-17.506-17.506c0-10.155-8.295-18.45-18.42-18.45z" fill="#7fdbae" fill-rule="evenodd"/></g><g><path clip-rule="evenodd" d="m269.254 314.362c10.096.059 18.361 8.325 18.361 18.45v17.506 17.506c0 10.125-8.295 18.45-18.45 18.45h34.006c10.155 0 18.45-8.325 18.45-18.45v-17.506-17.506c0-10.155-8.295-18.45-18.45-18.45z" fill="#7fdbae" fill-rule="evenodd"/></g><g><path clip-rule="evenodd" d="m269.166 260.517h34.006c10.155 0 18.45-8.295 18.45-18.421v-35.011c0-10.155-8.295-18.45-18.45-18.45h-33.918.03c10.096.059 18.332 8.325 18.332 18.45v35.011c-.001 10.125-8.296 18.421-18.45 18.421z" fill="#75cef8" fill-rule="evenodd"/></g><g><path clip-rule="evenodd" d="m475.182 207.085v35.011c0 10.125-8.295 18.421-18.42 18.421h33.977c10.155 0 18.45-8.295 18.45-18.421v-35.011c0-10.155-8.295-18.45-18.45-18.45h-33.977c10.125 0 18.42 8.295 18.42 18.45z" fill="#75cef8" fill-rule="evenodd"/></g><g><path clip-rule="evenodd" d="m509.189 332.812c0-10.155-8.295-18.45-18.45-18.45h-33.888c10.096.059 18.332 8.354 18.332 18.45v35.011c0 10.125-8.295 18.45-18.42 18.45h33.977c10.155 0 18.45-8.325 18.45-18.45v-35.011z" fill="#7fdbae" fill-rule="evenodd"/></g><g><path clip-rule="evenodd" d="m321.622 458.539c0-10.125-8.295-18.421-18.45-18.421h-33.918.03c10.096.059 18.332 8.325 18.332 18.421v35.011c0 10.155-8.295 18.45-18.45 18.45h34.006c10.155 0 18.45-8.295 18.45-18.45z" fill="#fbba58" fill-rule="evenodd"/></g><g><path clip-rule="evenodd" d="m322.33 88.59c12.516 0 22.73-10.214 22.73-22.731v-43.128c0-12.517-10.213-22.731-22.73-22.731h-34.006c12.516 0 22.73 10.214 22.73 22.731v43.129c0 12.517-10.214 22.731-22.73 22.731h34.006z" fill="#e5384f" fill-rule="evenodd"/></g><g><path d="m289.032 52.007h-66.064c-4.267 0-7.726-3.459-7.726-7.726s3.459-7.726 7.726-7.726h66.064c4.267 0 7.726 3.459 7.726 7.726s-3.459 7.726-7.726 7.726z" fill="#2b4d66"/></g><g><path d="m85.289 232.317h-33.77c-4.267 0-7.726-3.459-7.726-7.726s3.459-7.726 7.726-7.726h33.77c4.267 0 7.726 3.459 7.726 7.726s-3.459 7.726-7.726 7.726z" fill="#2b4d66"/></g><g><path d="m85.289 358.044h-33.77c-4.267 0-7.726-3.459-7.726-7.726s3.459-7.726 7.726-7.726h33.77c4.267 0 7.726 3.459 7.726 7.726s-3.459 7.726-7.726 7.726z" fill="#2b4d66"/></g><g><path d="m272.885 232.317h-33.771c-4.267 0-7.726-3.459-7.726-7.726s3.459-7.726 7.726-7.726h33.771c4.267 0 7.726 3.459 7.726 7.726s-3.459 7.726-7.726 7.726z" fill="#2b4d66"/></g><g><path d="m272.885 358.044h-33.771c-4.267 0-7.726-3.459-7.726-7.726s3.459-7.726 7.726-7.726h33.771c4.267 0 7.726 3.459 7.726 7.726.001 4.267-3.459 7.726-7.726 7.726z" fill="#2b4d66"/></g><g><path d="m460.452 358.044h-33.771c-4.267 0-7.726-3.459-7.726-7.726s3.459-7.726 7.726-7.726h33.771c4.267 0 7.726 3.459 7.726 7.726.001 4.267-3.459 7.726-7.726 7.726z" fill="#2b4d66"/></g><g><path d="m460.452 232.317h-33.771c-4.267 0-7.726-3.459-7.726-7.726s3.459-7.726 7.726-7.726h33.771c4.267 0 7.726 3.459 7.726 7.726s-3.459 7.726-7.726 7.726z" fill="#2b4d66"/></g><g><path d="m272.885 483.771h-33.771c-4.267 0-7.726-3.459-7.726-7.726s3.459-7.726 7.726-7.726h33.771c4.267 0 7.726 3.459 7.726 7.726.001 4.266-3.459 7.726-7.726 7.726z" fill="#2b4d66"/></g></g></svg>