<svg id="Capa_1" enable-background="new 0 0 512 512" height="512" viewBox="0 0 512 512" width="512" xmlns="http://www.w3.org/2000/svg"><g><g><path clip-rule="evenodd" d="m355.224 259.74c-9.363-40.483-45.643-70.642-88.976-70.642l-26.248-65.098 26.248-75.167c109.892 0 201.899 76.494 225.636 179.157l-59.884 51.01z" fill="#a7e9a6" fill-rule="evenodd"/></g><g><path clip-rule="evenodd" d="m392.465 474.638-68.465-43.638-8.988-73.369c25.567-16.175 42.552-44.714 42.552-77.215 0-7.112-.81-14.014-2.341-20.677l136.66-31.75c3.901 16.865 5.972 34.391 5.972 52.427 0 81.356-41.952 152.899-105.39 194.222z" fill="#ffd772" fill-rule="evenodd"/></g><g><path clip-rule="evenodd" d="m93.848 48.833h172.4v140.265h-172.4v40.483c0 9.273-7.742 10.413-12.124 7.502l-64.398-106.564c-2.131-3.691-3.181-7.472-3.181-11.284 0-3.781 1.05-7.562 3.181-11.254l64.398-106.563c4.381-2.911 12.124-1.771 12.124 7.502z" fill="#ffa95f" fill-rule="evenodd"/></g><g><path clip-rule="evenodd" d="m266.248 371.735c17.915 0 34.66-5.162 48.764-14.104l77.453 117.007c-36.311 23.648-79.673 37.362-126.217 37.362s-89.906-13.714-126.217-37.362l15.969-70.638 60.133-47.239c14.375 9.453 31.6 14.974 50.115 14.974z" fill="#eb5468" fill-rule="evenodd"/></g><g><path clip-rule="evenodd" d="m216.133 356.761-76.102 117.877c-63.438-41.323-105.36-112.866-105.36-194.222h140.261c-.001 31.93 16.384 60.019 41.201 76.345z" fill="#75cef8" fill-rule="evenodd"/></g><g><path clip-rule="evenodd" d="m304.269 51.924c60.738 30.49 106.201 86.878 121.895 154.699 2.641 11.494 4.441 23.317 5.342 35.411l60.378-14.045c-20.946-90.538-95.008-160.76-187.615-176.065z" fill="#7fdbae" fill-rule="evenodd"/></g><g><path clip-rule="evenodd" d="m432.106 259.02c0 65.841-27.458 125.26-71.541 167.423l31.899 48.195c63.438-41.323 105.391-112.866 105.391-194.222 0-18.036-2.071-35.561-5.972-52.427l-60.378 14.045c.391 5.612.601 11.284.601 16.986z" fill="#fbba58" fill-rule="evenodd"/></g><g><path clip-rule="evenodd" d="m392.465 474.638-31.899-48.195c-10.413 9.933-21.726 18.936-33.85 26.799-36.311 23.648-79.643 37.392-126.187 37.392-12.964 0-25.657-1.08-38.051-3.121 31.209 15.694 66.469 24.487 103.77 24.487 46.544 0 89.906-13.714 126.217-37.362z" fill="#e5384f" fill-rule="evenodd"/></g><g><path d="m213.613 105.414h-105.271c-4.268 0-7.726-3.459-7.726-7.726 0-4.268 3.459-7.726 7.726-7.726h105.271c4.268 0 7.726 3.459 7.726 7.726 0 4.268-3.459 7.726-7.726 7.726z" fill="#375e7d"/></g><g><path d="m213.613 147.758h-31.96c-4.268 0-7.726-3.459-7.726-7.726s3.459-7.726 7.726-7.726h31.96c4.268 0 7.726 3.459 7.726 7.726s-3.459 7.726-7.726 7.726zm-73.282 0h-31.989c-4.268 0-7.726-3.459-7.726-7.726s3.459-7.726 7.726-7.726h31.989c4.268 0 7.726 3.459 7.726 7.726s-3.458 7.726-7.726 7.726z" fill="#375e7d"/></g><g><path d="m125.387 391.976c-4.268 0-7.726-3.459-7.726-7.726v-41.73h-2.837c-4.268 0-7.726-3.459-7.726-7.726s3.459-7.726 7.726-7.726h10.563c4.268 0 7.726 3.459 7.726 7.726v49.456c.001 4.267-3.458 7.726-7.726 7.726z" fill="#375e7d"/></g><g><path d="m270.095 467.244c-10.087 0-10.878-.272-11.93-.632-2.487-.849-4.348-2.761-5.101-5.241-1.255-4.14.674-6.663 3.871-10.844 2.498-3.268 7.149-9.351 14.983-20.558 2.521-3.628 3.557-6.166 3.975-7.729l.11-.879c-.19-2.533-2.312-4.536-4.893-4.536-2.356 0-4.391 1.666-4.841 3.962-.819 4.187-4.868 6.922-9.067 6.098-4.187-.82-6.917-4.879-6.098-9.067 1.866-9.528 10.28-16.445 20.006-16.445 11.226 0 20.36 9.134 20.36 20.36 0 .321-.02.642-.059.96l-.24 1.921c-.033.266-.08.528-.141.789-.974 4.192-3.078 8.577-6.433 13.404-3.769 5.39-6.822 9.629-9.266 12.957 3.352-.018 6.965-.051 10.417-.094.033-.001.065-.001.099-.001 4.222 0 7.671 3.396 7.723 7.63.053 4.267-3.362 7.769-7.629 7.822-6.938.084-12.051.123-15.846.123z" fill="#375e7d"/></g><g><path d="m371.34 183.139c-.022 0-.044 0-.067 0-4.267-.037-7.696-3.525-7.66-7.793.02-2.356.041-4.922.061-7.602h-18.323c-2.733 0-5.264-1.445-6.653-3.798-1.39-2.354-1.433-5.267-.113-7.66 5.318-9.643 18.012-32.466 21.017-36.13 3.19-3.921 7.632-5.496 11.867-4.198 4.243 1.305 7.261 5.321 7.686 10.23.159 1.84.138 14.026.072 26.181 3.742.538 6.619 3.758 6.619 7.648 0 3.926-2.928 7.168-6.719 7.661-.024 3.17-.046 5.877-.062 7.8-.036 4.245-3.489 7.661-7.725 7.661zm-12.847-30.847h5.281c.018-3.271.032-6.455.041-9.394-1.655 2.893-3.464 6.086-5.322 9.394z" fill="#375e7d"/></g><path d="m426.809 326.031c0-11.243-9.147-20.39-20.39-20.39-9.676 0-18.086 6.899-19.998 16.406-.842 4.183 1.867 8.257 6.051 9.098 4.18.842 8.257-1.867 9.098-6.051.467-2.318 2.506-4 4.849-4 2.722 0 4.938 2.215 4.938 4.938 0 2.706-2.215 4.907-4.938 4.907-4.268 0-7.726 3.459-7.726 7.726 0 4.268 3.459 7.726 7.726 7.726 2.722 0 4.938 2.215 4.938 4.938 0 2.706-2.215 4.907-4.938 4.907-2.442 0-4.53-1.811-4.858-4.212-.007-.055-.015-.111-.024-.166-.009-.059-.025-.207-.025-.529 0-4.268-3.459-7.726-7.726-7.726s-7.726 3.459-7.726 7.726c0 1.05.064 1.964.203 2.865 1.402 9.98 10.053 17.495 20.157 17.495 11.244 0 20.39-9.134 20.39-20.36 0-4.783-1.667-9.177-4.434-12.658 2.766-3.477 4.433-7.864 4.433-12.64z" fill="#375e7d"/></g></svg>